<svg id="Capa_1" data-name="Capa 1" xmlns="http://www.w3.org/2000/svg" viewBox="0 0 242.72 242.72">
  <defs>
    <style>
      .cls-1,.cls-2,.cls-3,.cls-4,.cls-5{stroke:#000;stroke-miterlimit:10;}.cls-1,.cls-3,.cls-5{stroke-linecap:round;}.cls-1,.cls-3{stroke-width:4px;}.cls-2,.cls-3,.cls-4,.cls-5{fill:none;}.cls-2{stroke-width:8px;}.cls-4{stroke-width:3px;}.cls-5{stroke-width:6px;}.cls-6{font-size:109px;fill:#fff;font-family:TrebuchetMS-Italic,
      Trebuchet MS;font-style:italic;letter-spacing:-0.04em;}
    </style>
  </defs>
  <title>Atlas_Logo_NoName</title>
  <g id="OpcionA">
    <circle class="cls-1" cx="121.36" cy="121.36" r="40.99"/>
    <circle class="cls-2" cx="121.36" cy="121.36" r="117.36"/>
    <line class="cls-3" x1="121.36" y1="22.15" x2="121.36" y2="220.57"/>
    <line class="cls-4" x1="4" y1="121.36" x2="238.72" y2="121.36"/>
    <line class="cls-4" x1="34.11" y1="199.84" x2="208.62" y2="199.84"/>
    <line class="cls-4" x1="34.11" y1="42.88" x2="208.62" y2="42.88"/>
    <line class="cls-4" x1="10.72" y1="82.12" x2="232" y2="82.12"/>
    <path class="cls-5" d="M236.33,43.77c4.29,2.64,53.81,34.37,56.64,95.11,2,42.63-19.8,83.33-56.64,106.15"
          transform="translate(-84.01 -23.04)"/>
    <path class="cls-5" d="M174.88,45.18c-4.29,2.65-53.82,34.37-56.64,95.12-2,42.63,19.79,83.32,56.64,106.14"
          transform="translate(-84.01 -23.04)"/>
    <text class="cls-6" transform="translate(90.09 159.2)">A</text>
    <line class="cls-4" x1="10.72" y1="160.6" x2="231.99" y2="160.6"/>
  </g>
</svg>
